<svg width="53" height="63" viewBox="0 0 53 63" fill="none" xmlns="http://www.w3.org/2000/svg">
<rect x="4.28571" y="4.71429" width="42" height="58.2857" fill="#C7EAEC"/>
<path d="M4.28571 4.71429H46.2857L52.7143 9.53674e-07H12.8571L4.28571 4.71429Z" fill="#D2F7F9"/>
<path d="M46.2857 4.71429L52.7143 0V53.1429L46.2857 63V4.71429Z" fill="#BBE4E7"/>
<rect x="8.67144" y="36.5286" width="32.3714" height="21.2286" fill="#A8D1D5" stroke="#2E2E2E" stroke-width="0.2"/>
<rect x="14.6714" y="46.8143" width="20.3714" height="1.51429" fill="#2E2E2E" stroke="#2E2E2E" stroke-width="0.2"/>
<path d="M33.5673 48.3286L34.3578 45.9571H35.8613L35.0708 48.3286H33.5673Z" fill="#2E2E2E" stroke="#2E2E2E" stroke-width="0.2"/>
<path d="M15.2898 48.3286L14.4994 45.9571H12.9959L13.7864 48.3286H15.2898Z" fill="#2E2E2E" stroke="#2E2E2E" stroke-width="0.2"/>
<rect x="8.57144" y="10.7143" width="32.5714" height="21.4286" fill="#2E2E2E"/>
<path d="M12.5211 13.0197C12.6076 12.199 13.299 11.576 14.1234 11.576H38.6744C39.6072 11.576 40.3451 12.3665 40.282 13.2981L39.0581 31.3626C39.0008 32.2091 38.2981 32.8664 37.4506 32.8664H12.2197C11.263 32.8664 10.517 32.0367 10.6174 31.0842L12.5211 13.0197Z" fill="#D9C300"/>
<path d="M14.941 11.8986C14.941 11.0078 15.6624 10.2857 16.5523 10.2857H24.2862C25.1761 10.2857 25.8975 11.0078 25.8975 11.8986H14.941Z" fill="#D9C300"/>
<path d="M13.1889 17.7051C13.1889 16.9924 13.7666 16.4147 14.4793 16.4147C15.1919 16.4147 15.7696 16.9924 15.7696 17.7051V28.3502C15.7696 29.0629 15.1919 29.6406 14.4793 29.6406C13.7666 29.6406 13.1889 29.0629 13.1889 28.3502V17.7051Z" fill="#FFF175"/>
<path d="M10.2857 14.8018C10.2857 13.9111 11.0078 13.1889 11.8986 13.1889H37.3825C38.2733 13.1889 38.9954 13.9111 38.9954 14.8018V31.2535C38.9954 32.1442 38.2733 32.8664 37.3825 32.8664H11.8986C11.0078 32.8664 10.2857 32.1442 10.2857 31.2535V14.8018Z" fill="#FFE500"/>
<path d="M8.23536 15.5912C8.32185 14.7704 9.01328 14.1475 9.83771 14.1475H34.3887C35.3214 14.1475 36.0593 14.9379 35.9962 15.8695L34.7724 33.934C34.7151 34.7805 34.0124 35.4378 33.1649 35.4378H7.93398C6.97724 35.4378 6.23126 34.6081 6.33164 33.6557L8.23536 15.5912Z" fill="#D9C300"/>
<path d="M10.6553 14.4701C10.6553 13.5793 11.3767 12.8571 12.2665 12.8571H20.0005C20.8904 12.8571 21.6117 13.5793 21.6117 14.4701H10.6553Z" fill="#D9C300"/>
<path d="M8.90323 20.2765C8.90323 19.5639 9.48093 18.9862 10.1936 18.9862C10.9062 18.9862 11.4839 19.5639 11.4839 20.2765V30.9217C11.4839 31.6343 10.9062 32.212 10.1936 32.212C9.48093 32.212 8.90323 31.6343 8.90323 30.9217V20.2765Z" fill="#FFF175"/>
<path d="M6 17.3733C6 16.4825 6.72212 15.7604 7.6129 15.7604H33.0968C33.9876 15.7604 34.7097 16.4825 34.7097 17.3733V33.8249C34.7097 34.7157 33.9876 35.4378 33.0968 35.4378H7.6129C6.72212 35.4378 6 34.7157 6 33.8249V17.3733Z" fill="#FFE500"/>
<rect y="16.2857" width="36.8571" height="24.2481" fill="#9FC9CC"/>
<rect x="6.78946" y="27.9248" width="23.2782" height="1.93985" fill="#2E2E2E"/>
<path d="M29.0977 26.9549H31.0376L30.0677 29.8647H28.1278L29.0977 26.9549Z" fill="#2E2E2E"/>
<path d="M6.78947 26.9549H4.84963L5.81955 29.8647H7.7594L6.78947 26.9549Z" fill="#2E2E2E"/>
<path d="M41.1429 22.2857L36.8571 27.4286V40.5009L41.1429 32.1429V22.2857Z" fill="#86ADAF"/>
</svg>
